<svg width="1440" height="253" viewBox="0 0 1440 253" fill="none" xmlns="http://www.w3.org/2000/svg">
<g clip-path="url(#clip0_1_4)">
<path d="M0 49.75L34.275 38.35C68.475 27.025 137.025 4.22498 205.65 7.74998C274.275 11.275 342.975 40.975 411.6 39.85C480.225 38.725 548.775 6.77497 617.25 1.22497C685.725 -4.25003 754.275 16.75 822.75 27.625C891.225 38.5 959.775 39.25 1028.4 36.625C1097.02 34 1165.73 28 1234.35 30.475C1302.98 33.025 1371.53 43.975 1405.73 49.525L1440 55V253.75H1405.73C1371.53 253.75 1302.98 253.75 1234.35 253.75C1165.73 253.75 1097.02 253.75 1028.4 253.75C959.775 253.75 891.225 253.75 822.75 253.75C754.275 253.75 685.725 253.75 617.25 253.75C548.775 253.75 480.225 253.75 411.6 253.75C342.975 253.75 274.275 253.75 205.65 253.75C137.025 253.75 68.475 253.75 34.275 253.75H0V49.75Z" fill="#D15875"/>
<path d="M0 97.75L34.275 98.725C68.475 99.775 137.025 101.725 205.65 92.65C274.275 83.5 342.975 63.25 411.6 56.35C480.225 49.525 548.775 55.975 617.25 71.125C685.725 86.275 754.275 109.975 822.75 110.5C891.225 111.025 959.775 88.225 1028.4 74.65C1097.02 61 1165.73 56.5 1234.35 61.525C1302.98 66.475 1371.53 81.025 1405.73 88.225L1440 95.5V253.75H1405.73C1371.53 253.75 1302.98 253.75 1234.35 253.75C1165.73 253.75 1097.02 253.75 1028.4 253.75C959.775 253.75 891.225 253.75 822.75 253.75C754.275 253.75 685.725 253.75 617.25 253.75C548.775 253.75 480.225 253.75 411.6 253.75C342.975 253.75 274.275 253.75 205.65 253.75C137.025 253.75 68.475 253.75 34.275 253.75H0V97.75Z" fill="#9E4977"/>
<path d="M0 149.5L34.275 152.5C68.475 155.5 137.025 161.5 205.65 165.625C274.275 169.75 342.975 172 411.6 162.025C480.225 151.975 548.775 129.775 617.25 120.1C685.725 110.5 754.275 113.5 822.75 115.375C891.225 117.25 959.775 118 1028.4 127.225C1097.02 136.525 1165.73 154.225 1234.35 155.275C1302.98 156.25 1371.53 140.5 1405.73 132.625L1440 124.75V253.75H1405.73C1371.53 253.75 1302.98 253.75 1234.35 253.75C1165.73 253.75 1097.02 253.75 1028.4 253.75C959.775 253.75 891.225 253.75 822.75 253.75C754.275 253.75 685.725 253.75 617.25 253.75C548.775 253.75 480.225 253.75 411.6 253.75C342.975 253.75 274.275 253.75 205.65 253.75C137.025 253.75 68.475 253.75 34.275 253.75H0V149.5Z" fill="#693E6B"/>
<path d="M0 212.5L34.275 212.275C68.475 211.975 137.025 211.525 205.65 205.225C274.275 199 342.975 187 411.6 181.525C480.225 175.975 548.775 177.025 617.25 180.775C685.725 184.525 754.275 190.975 822.75 187.975C891.225 184.975 959.775 172.525 1028.4 171.25C1097.02 169.975 1165.73 180.025 1234.35 181C1302.98 181.975 1371.53 174.025 1405.73 169.975L1440 166V253.75H1405.73C1371.53 253.75 1302.98 253.75 1234.35 253.75C1165.73 253.75 1097.02 253.75 1028.4 253.75C959.775 253.75 891.225 253.75 822.75 253.75C754.275 253.75 685.725 253.75 617.25 253.75C548.775 253.75 480.225 253.75 411.6 253.75C342.975 253.75 274.275 253.75 205.65 253.75C137.025 253.75 68.475 253.75 34.275 253.75H0V212.5Z" fill="#393053"/>
</g>
<defs>
<clipPath id="clip0_1_4">
<rect width="1440" height="253" fill="white"/>
</clipPath>
</defs>
</svg>
