<svg width="1440" height="227" viewBox="0 0 1440 227" fill="none" xmlns="http://www.w3.org/2000/svg">
<path d="M0 21.4611L21.976 14.6861C43.8768 7.9111 87.8289 -5.6389 131.555 4.89999C175.357 15.4389 219.008 50.0666 262.809 67.6064C306.536 85.2214 350.488 85.673 394.214 91.093C438.016 96.513 481.667 106.751 525.468 86.2C569.195 65.6492 613.147 14.1592 656.873 19.2028C700.674 24.2464 744.326 85.673 788.127 98.4703C831.853 111.267 875.806 75.4353 919.532 59.6269C963.333 43.8186 1006.98 48.0342 1050.79 33.8819C1094.51 19.7297 1138.46 -12.9409 1182.19 5.87859C1225.99 24.698 1269.64 95.0075 1313.44 123.086C1357.17 151.165 1401.12 137.163 1423.02 130.087L1445 123.086V303.753H1423.02C1401.12 303.753 1357.17 303.753 1313.44 303.753C1269.64 303.753 1225.99 303.753 1182.19 303.753C1138.46 303.753 1094.51 303.753 1050.79 303.753C1006.98 303.753 963.333 303.753 919.532 303.753C875.806 303.753 831.853 303.753 788.127 303.753C744.326 303.753 700.674 303.753 656.873 303.753C613.147 303.753 569.195 303.753 525.468 303.753C481.667 303.753 438.016 303.753 394.214 303.753C350.488 303.753 306.536 303.753 262.809 303.753C219.008 303.753 175.357 303.753 131.555 303.753C87.8289 303.753 43.8768 303.753 21.976 303.753H0V21.4611Z" fill="#393053"/>
</svg>
