<svg width="300" height="300" viewBox="0 0 300 300" fill="none" xmlns="http://www.w3.org/2000/svg">
<path d="M288 0H12C5.3625 0 0 5.3625 0 12V288C0 294.638 5.3625 300 12 300H288C294.638 300 300 294.638 300 288V12C300 5.3625 294.638 0 288 0ZM96 237C96 238.65 94.65 240 93 240H63C61.35 240 60 238.65 60 237V63C60 61.35 61.35 60 63 60H93C94.65 60 96 61.35 96 63V237ZM168 132C168 133.65 166.65 135 165 135H135C133.35 135 132 133.65 132 132V63C132 61.35 133.35 60 135 60H165C166.65 60 168 61.35 168 63V132ZM240 159C240 160.65 238.65 162 237 162H207C205.35 162 204 160.65 204 159V63C204 61.35 205.35 60 207 60H237C238.65 60 240 61.35 240 63V159Z" fill="#7B53EE"/>
</svg>
