<svg width="1440" height="183" viewBox="0 0 1440 183" fill="none" xmlns="http://www.w3.org/2000/svg">
<path d="M0 183L20.025 168C39.975 153 80.025 123 120 110.85C159.975 98.775 200.025 104.475 240 106.875C279.975 109.275 320.025 108.225 360 115.725C399.975 123.225 440.025 139.275 480 151.5C519.975 163.725 560.025 172.275 600 168C639.975 163.725 680.025 146.775 720 138.975C759.975 131.25 800.025 132.75 840 132.225C879.975 131.775 920.025 129.225 960 134.475C999.975 139.725 1040.03 152.775 1080 153.9C1119.97 155.025 1160.03 144.225 1200 132.15C1239.97 120 1280.03 106.5 1320 101.775C1359.97 96.975 1400.03 101.025 1419.98 102.975L1440 105V0H1419.98C1400.03 0 1359.97 0 1320 0C1280.03 0 1239.97 0 1200 0C1160.03 0 1119.97 0 1080 0C1040.03 0 999.975 0 960 0C920.025 0 879.975 0 840 0C800.025 0 759.975 0 720 0C680.025 0 639.975 0 600 0C560.025 0 519.975 0 480 0C440.025 0 399.975 0 360 0C320.025 0 279.975 0 240 0C200.025 0 159.975 0 120 0C80.025 0 39.975 0 20.025 0H0V183Z" fill="#693E6B"/>
<path d="M0 112.5L20.025 102.15C39.975 91.725 80.025 71.025 120 68.025C159.975 65.025 200.025 79.725 240 89.85C279.975 99.975 320.025 105.525 360 103.875C399.975 102.225 440.025 93.525 480 88.5C519.975 83.475 560.025 82.275 600 86.625C639.975 90.975 680.025 101.025 720 102.375C759.975 103.725 800.025 96.525 840 85.5C879.975 74.475 920.025 59.775 960 53.475C999.975 47.25 1040.03 49.5 1080 51.9C1119.97 54.225 1160.03 56.775 1200 60.9C1239.97 65.025 1280.03 70.725 1320 77.85C1359.97 84.975 1400.03 93.525 1419.98 97.725L1440 102V0H1419.98C1400.03 0 1359.97 0 1320 0C1280.03 0 1239.97 0 1200 0C1160.03 0 1119.97 0 1080 0C1040.03 0 999.975 0 960 0C920.025 0 879.975 0 840 0C800.025 0 759.975 0 720 0C680.025 0 639.975 0 600 0C560.025 0 519.975 0 480 0C440.025 0 399.975 0 360 0C320.025 0 279.975 0 240 0C200.025 0 159.975 0 120 0C80.025 0 39.975 0 20.025 0H0V112.5Z" fill="#393053"/>
</svg>
